<mxfile host="app.diagrams.net" modified="2024-07-12T17:24:46.861Z" agent="Mozilla/5.0 (Windows NT 10.0; Win64; x64) AppleWebKit/537.36 (KHTML, like Gecko) Chrome/126.0.0.0 Safari/537.36" version="24.6.5" etag="kJ_dNNUb_8eZvcB8t23c" type="github">
  <diagram name="Page-1" id="ASEmHho2A2b_78zH0Tgj">
    <mxGraphModel>
      <root>
        <mxCell id="0" />
        <mxCell id="1" parent="0" />
      </root>
    </mxGraphModel>
  </diagram>
</mxfile>
